<svg width="20" height="20" viewBox="0 0 20 20" fill="none" xmlns="http://www.w3.org/2000/svg">
<g clip-path="url(#clip0_4617_1730)">
<path d="M4.43242 12.0846L3.73625 14.6835L1.19176 14.7373C0.431328 13.3269 0 11.7132 0 9.99832C0 8.34008 0.403281 6.77633 1.11812 5.39941H1.11867L3.38398 5.81473L4.37633 8.06645C4.16863 8.67195 4.05543 9.32195 4.05543 9.99832C4.05551 10.7324 4.18848 11.4357 4.43242 12.0846Z" fill="#FBBB00"/>
<path d="M19.8253 8.13184C19.9401 8.73676 20 9.36148 20 9.99996C20 10.7159 19.9247 11.4143 19.7813 12.0879C19.2945 14.3802 18.0225 16.3818 16.2605 17.7983L16.2599 17.7978L13.4066 17.6522L13.0028 15.1313C14.172 14.4456 15.0858 13.3725 15.5671 12.0879H10.2198V8.13184H15.6451H19.8253Z" fill="#518EF8"/>
<path d="M16.2599 17.7965L16.2604 17.797C14.5467 19.1745 12.3698 19.9987 10 19.9987C6.19177 19.9987 2.8808 17.8701 1.19177 14.7377L4.43244 12.085C5.27693 14.3388 7.45111 15.9432 10 15.9432C11.0956 15.9432 12.122 15.647 13.0027 15.13L16.2599 17.7965Z" fill="#28B446"/>
<path d="M16.3829 2.30219L13.1433 4.95437C12.2318 4.38461 11.1543 4.05547 9.99992 4.05547C7.39332 4.05547 5.17847 5.73348 4.37628 8.06812L1.11859 5.40109H1.11804C2.78234 2.1923 6.13507 0 9.99992 0C12.4263 0 14.651 0.864297 16.3829 2.30219Z" fill="#F14336"/>
</g>
<defs>
<clipPath id="clip0_4617_1730">
<rect width="20" height="20" fill="white"/>
</clipPath>
</defs>
</svg>
