<svg width="32" height="32" viewBox="0 0 32 32" fill="none" xmlns="http://www.w3.org/2000/svg">
<path opacity="0.2" d="M25 19.1077L20.4004 23.7073C20.2783 23.8294 20.1266 23.9178 19.9602 23.9639C19.7938 24.01 19.6182 24.0122 19.4507 23.9704L12.2061 22.1592C12.0702 22.1252 11.943 22.0631 11.8326 21.9768L5 16.634L9.0718 8.97372L15.4868 7.10353C15.716 7.03672 15.9614 7.05409 16.1789 7.15249L20.5 9.10769H17.9142C17.7829 9.10769 17.6529 9.13355 17.5315 9.18381C17.4102 9.23406 17.3 9.30772 17.2071 9.40058L12.3153 14.2924C12.214 14.3937 12.1356 14.5156 12.0855 14.6498C12.0354 14.784 12.0148 14.9275 12.0249 15.0704C12.0351 15.2133 12.0758 15.3524 12.1444 15.4781C12.213 15.6039 12.3078 15.7135 12.4224 15.7995L13.1 16.3077C13.7924 16.827 14.6345 17.1077 15.5 17.1077C16.3655 17.1077 17.2076 16.827 17.9 16.3077L19.5 15.1077L25 19.1077Z" fill="#23BD33"/>
<path d="M30.0897 15.2231L27 16.768L23 9.10771L26.1212 7.54713C26.3557 7.42988 26.6268 7.40941 26.8763 7.49013C27.1257 7.57084 27.3335 7.74629 27.4548 7.97868L30.5289 13.8658C30.5904 13.9835 30.6278 14.1123 30.639 14.2446C30.6501 14.377 30.6348 14.5102 30.5939 14.6366C30.553 14.7629 30.4874 14.8798 30.4008 14.9806C30.3142 15.0813 30.2085 15.1637 30.0897 15.2231V15.2231Z" stroke="#23BD33" stroke-width="2" stroke-linecap="round" stroke-linejoin="round"/>
<path d="M5.00004 16.634L1.91033 15.0891C1.79155 15.0297 1.68579 14.9473 1.59922 14.8466C1.51265 14.7458 1.447 14.6289 1.40612 14.5026C1.36523 14.3762 1.34992 14.243 1.36108 14.1106C1.37224 13.9783 1.40965 13.8495 1.47112 13.7318L4.54523 7.84468C4.66658 7.61229 4.87435 7.43684 5.12378 7.35612C5.37322 7.27541 5.64438 7.29587 5.87887 7.41312L9.00004 8.9737L5.00004 16.634Z" stroke="#23BD33" stroke-width="2" stroke-linecap="round" stroke-linejoin="round"/>
<path d="M27 16.7679L25 19.1077L20.4004 23.7073C20.2783 23.8294 20.1266 23.9178 19.9602 23.9639C19.7938 24.01 19.6182 24.0122 19.4507 23.9704L12.2061 22.1592C12.0702 22.1252 11.943 22.0631 11.8326 21.9768L5 16.634" stroke="#23BD33" stroke-width="2" stroke-linecap="round" stroke-linejoin="round"/>
<path d="M25 19.1077L19.5 15.1077L17.9 16.3077C17.2076 16.827 16.3655 17.1077 15.5 17.1077C14.6345 17.1077 13.7924 16.827 13.1 16.3077L12.4224 15.7995C12.3078 15.7135 12.213 15.604 12.1444 15.4782C12.0758 15.3524 12.0351 15.2133 12.0249 15.0704C12.0148 14.9275 12.0354 14.7841 12.0855 14.6498C12.1356 14.5156 12.214 14.3937 12.3153 14.2924L17.2071 9.4006C17.3 9.30774 17.4102 9.23408 17.5315 9.18382C17.6528 9.13357 17.7829 9.1077 17.9142 9.1077H23" stroke="#23BD33" stroke-width="2" stroke-linecap="round" stroke-linejoin="round"/>
<path d="M9.07166 8.97371L15.4867 7.10352C15.7158 7.03671 15.9613 7.05408 16.1788 7.15248L20.4999 9.10768" stroke="#23BD33" stroke-width="2" stroke-linecap="round" stroke-linejoin="round"/>
<path d="M14 26.6077L10.2326 25.6658C10.0797 25.6276 9.938 25.5538 9.81907 25.4504L7 23" stroke="#23BD33" stroke-width="2" stroke-linecap="round" stroke-linejoin="round"/>
</svg>
