<svg width="154" height="40" viewBox="0 0 154 40" fill="none" xmlns="http://www.w3.org/2000/svg">
<path d="M1.5 15L20.25 5L39 15L20.25 25L1.5 15Z" stroke="#FF6636" stroke-width="3" stroke-linecap="round" stroke-linejoin="round"/>
<path d="M29.625 37.5V20L20.25 15" stroke="#FF6636" stroke-width="3" stroke-linecap="round" stroke-linejoin="round"/>
<path d="M34.625 17.3333V25.8521C34.6255 26.1218 34.5384 26.3843 34.3766 26.6001C33.324 28.0008 28.8833 33.1249 20.25 33.1249C11.6167 33.1249 7.17597 28.0008 6.12336 26.6001C5.96165 26.3843 5.87449 26.1218 5.875 25.8521V17.3333" stroke="#FF6636" stroke-width="3" stroke-linecap="round" stroke-linejoin="round"/>
<path d="M50.5455 32V8.72727H65.6818V12.2614H54.7614V18.5795H64.8977V22.1136H54.7614V28.4659H65.7727V32H50.5455ZM79.4207 20.6136V24H68.9434V20.6136H79.4207ZM91.5033 14.5455V17.7273H81.4692V14.5455H91.5033ZM83.9465 10.3636H88.0601V26.75C88.0601 27.303 88.1434 27.7273 88.3101 28.0227C88.4844 28.3106 88.7116 28.5076 88.9919 28.6136C89.2722 28.7197 89.5828 28.7727 89.9238 28.7727C90.1813 28.7727 90.4162 28.7538 90.6283 28.7159C90.848 28.678 91.0147 28.6439 91.1283 28.6136L91.8215 31.8295C91.6018 31.9053 91.2874 31.9886 90.8783 32.0795C90.4768 32.1705 89.9844 32.2235 89.401 32.2386C88.3707 32.2689 87.4427 32.1136 86.6169 31.7727C85.7912 31.4242 85.1359 30.8864 84.651 30.1591C84.1738 29.4318 83.9389 28.5227 83.9465 27.4318V10.3636ZM105.109 24.6591V14.5455H109.222V32H105.234V28.8977H105.052C104.658 29.875 104.01 30.6742 103.109 31.2955C102.215 31.9167 101.112 32.2273 99.8018 32.2273C98.6579 32.2273 97.6465 31.9735 96.7677 31.4659C95.8965 30.9508 95.2147 30.2045 94.7223 29.2273C94.2298 28.2424 93.9836 27.053 93.9836 25.6591V14.5455H98.0973V25.0227C98.0973 26.1288 98.4003 27.0076 99.0064 27.6591C99.6124 28.3106 100.408 28.6364 101.393 28.6364C101.999 28.6364 102.586 28.4886 103.154 28.1932C103.722 27.8977 104.188 27.4583 104.552 26.875C104.923 26.2841 105.109 25.5455 105.109 24.6591ZM121.208 14.5455V17.7273H111.174V14.5455H121.208ZM113.651 10.3636H117.765V26.75C117.765 27.303 117.848 27.7273 118.015 28.0227C118.189 28.3106 118.417 28.5076 118.697 28.6136C118.977 28.7197 119.288 28.7727 119.629 28.7727C119.886 28.7727 120.121 28.7538 120.333 28.7159C120.553 28.678 120.72 28.6439 120.833 28.6136L121.526 31.8295C121.307 31.9053 120.992 31.9886 120.583 32.0795C120.182 32.1705 119.689 32.2235 119.106 32.2386C118.076 32.2689 117.148 32.1136 116.322 31.7727C115.496 31.4242 114.841 30.8864 114.356 30.1591C113.879 29.4318 113.644 28.5227 113.651 27.4318V10.3636ZM131.115 32.3409C129.41 32.3409 127.933 31.9659 126.683 31.2159C125.433 30.4659 124.463 29.4167 123.774 28.0682C123.092 26.7197 122.751 25.1439 122.751 23.3409C122.751 21.5379 123.092 19.9583 123.774 18.6023C124.463 17.2462 125.433 16.1932 126.683 15.4432C127.933 14.6932 129.41 14.3182 131.115 14.3182C132.819 14.3182 134.297 14.6932 135.547 15.4432C136.797 16.1932 137.762 17.2462 138.444 18.6023C139.134 19.9583 139.478 21.5379 139.478 23.3409C139.478 25.1439 139.134 26.7197 138.444 28.0682C137.762 29.4167 136.797 30.4659 135.547 31.2159C134.297 31.9659 132.819 32.3409 131.115 32.3409ZM131.137 29.0455C132.062 29.0455 132.834 28.7917 133.456 28.2841C134.077 27.7689 134.539 27.0795 134.842 26.2159C135.153 25.3523 135.308 24.3902 135.308 23.3295C135.308 22.2614 135.153 21.2955 134.842 20.4318C134.539 19.5606 134.077 18.8674 133.456 18.3523C132.834 17.8371 132.062 17.5795 131.137 17.5795C130.191 17.5795 129.403 17.8371 128.774 18.3523C128.153 18.8674 127.687 19.5606 127.376 20.4318C127.073 21.2955 126.922 22.2614 126.922 23.3295C126.922 24.3902 127.073 25.3523 127.376 26.2159C127.687 27.0795 128.153 27.7689 128.774 28.2841C129.403 28.7917 130.191 29.0455 131.137 29.0455ZM142.01 32V14.5455H145.999V17.4545H146.18C146.499 16.447 147.044 15.6705 147.817 15.125C148.597 14.572 149.487 14.2955 150.487 14.2955C150.714 14.2955 150.968 14.3068 151.249 14.3295C151.536 14.3447 151.775 14.3712 151.964 14.4091V18.1932C151.79 18.1326 151.514 18.0795 151.135 18.0341C150.764 17.9811 150.404 17.9545 150.055 17.9545C149.305 17.9545 148.631 18.1174 148.033 18.4432C147.442 18.7614 146.976 19.2045 146.635 19.7727C146.294 20.3409 146.124 20.9962 146.124 21.7386V32H142.01Z" fill="#1D2026"/>
</svg>
