<svg width="176" height="46" viewBox="0 0 176 46" fill="none" xmlns="http://www.w3.org/2000/svg">
<path d="M1.725 17.25L23.2875 5.75L44.85 17.25L23.2875 28.75L1.725 17.25Z" stroke="#FF6636" stroke-width="3.45" stroke-linecap="round" stroke-linejoin="round"/>
<path d="M34.0687 43.125V23L23.2875 17.25" stroke="#FF6636" stroke-width="3.45" stroke-linecap="round" stroke-linejoin="round"/>
<path d="M39.8188 19.9332V29.7299C39.8194 30.04 39.7191 30.3419 39.5331 30.5901C38.3226 32.2009 33.2158 38.0936 23.2875 38.0936C13.3592 38.0936 8.25236 32.2009 7.04187 30.5901C6.8559 30.3419 6.75566 30.04 6.75625 29.7299V19.9332" stroke="#FF6636" stroke-width="3.45" stroke-linecap="round" stroke-linejoin="round"/>
<path d="M58.1273 36V9.23636H75.5341V13.3006H62.9756V20.5665H74.6324V24.6307H62.9756V31.9358H75.6386V36H58.1273ZM91.3338 22.9057V26.8H79.2849V22.9057H91.3338ZM105.229 15.9273V19.5864H93.6896V15.9273H105.229ZM96.5384 11.1182H101.269V29.9625C101.269 30.5985 101.365 31.0864 101.557 31.4261C101.757 31.7572 102.018 31.9837 102.341 32.1057C102.663 32.2277 103.02 32.2886 103.412 32.2886C103.709 32.2886 103.979 32.2669 104.223 32.2233C104.475 32.1797 104.667 32.1405 104.798 32.1057L105.595 35.804C105.342 35.8911 104.98 35.9869 104.51 36.0915C104.048 36.196 103.482 36.257 102.811 36.2744C101.626 36.3093 100.559 36.1307 99.6095 35.7386C98.6598 35.3379 97.9062 34.7193 97.3487 33.883C96.7998 33.0466 96.5297 32.0011 96.5384 30.7466V11.1182ZM120.875 27.558V15.9273H125.606V36H121.019V32.4324H120.81C120.357 33.5562 119.612 34.4754 118.575 35.1898C117.547 35.9042 116.279 36.2614 114.772 36.2614C113.457 36.2614 112.293 35.9695 111.283 35.3858C110.281 34.7934 109.497 33.9352 108.931 32.8114C108.364 31.6788 108.081 30.311 108.081 28.708V15.9273H112.812V27.9761C112.812 29.2481 113.16 30.2587 113.857 31.008C114.554 31.7572 115.469 32.1318 116.602 32.1318C117.299 32.1318 117.974 31.9619 118.627 31.6222C119.281 31.2824 119.816 30.7771 120.235 30.1063C120.661 29.4267 120.875 28.5773 120.875 27.558ZM139.39 15.9273V19.5864H127.85V15.9273H139.39ZM130.699 11.1182H135.43V29.9625C135.43 30.5985 135.526 31.0864 135.717 31.4261C135.918 31.7572 136.179 31.9837 136.501 32.1057C136.824 32.2277 137.181 32.2886 137.573 32.2886C137.869 32.2886 138.139 32.2669 138.383 32.2233C138.636 32.1797 138.828 32.1405 138.958 32.1057L139.755 35.804C139.503 35.8911 139.141 35.9869 138.671 36.0915C138.209 36.196 137.643 36.257 136.972 36.2744C135.787 36.3093 134.72 36.1307 133.77 35.7386C132.821 35.3379 132.067 34.7193 131.509 33.883C130.961 33.0466 130.69 32.0011 130.699 30.7466V11.1182ZM150.782 36.392C148.822 36.392 147.123 35.9608 145.685 35.0983C144.248 34.2358 143.133 33.0292 142.34 31.4784C141.556 29.9277 141.164 28.1155 141.164 26.042C141.164 23.9686 141.556 22.1521 142.34 20.5926C143.133 19.0331 144.248 17.8222 145.685 16.9597C147.123 16.0972 148.822 15.6659 150.782 15.6659C152.742 15.6659 154.441 16.0972 155.879 16.9597C157.316 17.8222 158.427 19.0331 159.211 20.5926C160.004 22.1521 160.4 23.9686 160.4 26.042C160.4 28.1155 160.004 29.9277 159.211 31.4784C158.427 33.0292 157.316 34.2358 155.879 35.0983C154.441 35.9608 152.742 36.392 150.782 36.392ZM150.808 32.6023C151.871 32.6023 152.76 32.3104 153.474 31.7267C154.188 31.1343 154.72 30.3415 155.068 29.3483C155.426 28.3551 155.604 27.2487 155.604 26.029C155.604 24.8006 155.426 23.6898 155.068 22.6966C154.72 21.6947 154.188 20.8975 153.474 20.3051C152.76 19.7127 151.871 19.4165 150.808 19.4165C149.719 19.4165 148.813 19.7127 148.09 20.3051C147.376 20.8975 146.84 21.6947 146.483 22.6966C146.134 23.6898 145.96 24.8006 145.96 26.029C145.96 27.2487 146.134 28.3551 146.483 29.3483C146.84 30.3415 147.376 31.1343 148.09 31.7267C148.813 32.3104 149.719 32.6023 150.808 32.6023ZM163.311 36V15.9273H167.898V19.2727H168.107C168.473 18.114 169.101 17.221 169.989 16.5938C170.887 15.9578 171.91 15.6398 173.06 15.6398C173.322 15.6398 173.613 15.6528 173.936 15.679C174.267 15.6964 174.541 15.7269 174.759 15.7705V20.1222C174.559 20.0525 174.241 19.9915 173.805 19.9392C173.378 19.8782 172.964 19.8477 172.564 19.8477C171.701 19.8477 170.926 20.035 170.238 20.4097C169.558 20.7756 169.022 21.2852 168.63 21.9386C168.238 22.592 168.042 23.3456 168.042 24.1994V36H163.311Z" fill="white"/>
</svg>
